<?xml version="1.0" encoding="UTF-8"?>
<!DOCTYPE svg PUBLIC "-//W3C//DTD SVG 1.1//EN" "http://www.w3.org/Graphics/SVG/1.1/DTD/svg11.dtd">
<!-- Creator: CorelDRAW 2019 (64-Bit) -->
<svg xmlns="http://www.w3.org/2000/svg" xml:space="preserve" width="16.2872mm" height="16.2872mm" version="1.1" style="shape-rendering:geometricPrecision; text-rendering:geometricPrecision; image-rendering:optimizeQuality; fill-rule:evenodd; clip-rule:evenodd"
viewBox="0 0 538.32 538.32"
 xmlns:xlink="http://www.w3.org/1999/xlink">
 <defs>
  <style type="text/css">
   <![CDATA[
    .fil0 {fill:#21568A}
   ]]>
  </style>
 </defs>
 <g id="Capa_x0020_1">
  <metadata id="CorelCorpID_0Corel-Layer"/>
  <path class="fil0" d="M311.63 480.66c-29.53,5.96 -59.34,5.52 -87.73,-0.59l-37.28 57.19 -51.94 -21.92 14.96 -66.61c-24.19,-16.06 -45.31,-37.12 -61.64,-62.42l-66.77 14.07 -21.23 -52.22 57.66 -36.52c-5.96,-29.52 -5.52,-59.34 0.59,-87.72l-57.19 -37.28 21.92 -51.94 66.61 14.96c16.06,-24.19 37.12,-45.31 62.42,-61.64l-14.07 -66.77 52.22 -21.23 36.52 57.66c29.52,-5.96 59.34,-5.52 87.72,0.59l37.28 -57.19 51.94 21.92 -14.96 66.61c24.19,16.06 45.31,37.12 61.64,62.42l66.77 -14.07 21.23 52.22 -57.66 36.51c5.96,29.53 5.51,59.34 -0.6,87.72l57.19 37.29 -21.92 51.94 -66.62 -14.96c-16.06,24.18 -37.11,45.3 -62.42,61.63l14.07 66.78 -52.22 21.23 -36.51 -57.66z"/>
 </g>
</svg>
