<?xml version="1.0" encoding="UTF-8"?>
<!DOCTYPE svg PUBLIC "-//W3C//DTD SVG 1.1//EN" "http://www.w3.org/Graphics/SVG/1.1/DTD/svg11.dtd">
<!-- Creator: CorelDRAW 2019 (64-Bit) -->
<svg xmlns="http://www.w3.org/2000/svg" xml:space="preserve" width="17.019mm" height="17.019mm" version="1.1" style="shape-rendering:geometricPrecision; text-rendering:geometricPrecision; image-rendering:optimizeQuality; fill-rule:evenodd; clip-rule:evenodd"
viewBox="0 0 1701.9 1701.9"
 xmlns:xlink="http://www.w3.org/1999/xlink">
 <defs>
  <style type="text/css">
   <![CDATA[
    .fil0 {fill:#009933}
   ]]>
  </style>
 </defs>
 <g id="Capa_x0020_1">
  <metadata id="CorelCorpID_0Corel-Layer"/>
  <path class="fil0" d="M797.27 1503.17c-91.08,-7.39 -177.64,-33.7 -255.24,-75.35l-156.68 135.42 -133.02 -107.48 99.5 -181.63c-57.03,-67.13 -100.95,-146.23 -127.32,-233.72l-206.46 -15.02 -18.06 -170.06 198.74 -58.06c7.39,-91.08 33.7,-177.64 75.35,-255.24l-135.42 -156.68 107.48 -133.02 181.63 99.5c67.13,-57.03 146.23,-100.95 233.72,-127.32l15.02 -206.46 170.06 -18.06 58.06 198.74c91.08,7.39 177.64,33.7 255.24,75.35l156.68 -135.42 133.02 107.48 -99.5 181.63c57.03,67.13 100.95,146.23 127.32,233.72l206.46 15.02 18.06 170.06 -198.73 58.06c-7.39,91.07 -33.72,177.63 -75.37,255.23l135.43 156.69 -107.48 133.02 -181.64 -99.51c-67.13,57.02 -146.22,100.93 -233.7,127.29l-15.03 206.5 -170.06 18.06 -58.06 -198.74z"/>
 </g>
</svg>
