<?xml version="1.0" encoding="UTF-8"?>
<!DOCTYPE svg PUBLIC "-//W3C//DTD SVG 1.1//EN" "http://www.w3.org/Graphics/SVG/1.1/DTD/svg11.dtd">
<!-- Creator: CorelDRAW 2019 (64-Bit) -->
<svg xmlns="http://www.w3.org/2000/svg" xml:space="preserve" width="16.5494mm" height="16.5494mm" version="1.1" style="shape-rendering:geometricPrecision; text-rendering:geometricPrecision; image-rendering:optimizeQuality; fill-rule:evenodd; clip-rule:evenodd"
viewBox="0 0 1823.7 1823.7"
 xmlns:xlink="http://www.w3.org/1999/xlink">
 <defs>
  <style type="text/css">
   <![CDATA[
    .fil0 {fill:#990000}
   ]]>
  </style>
 </defs>
 <g id="Capa_x0020_1">
  <metadata id="CorelCorpID_0Corel-Layer"/>
  <path class="fil0" d="M1041.22 1627.08c-99.84,18.18 -200.27,14.77 -295.47,-7.68l-129.31 190.23 -173.54 -77.19 54.69 -223.42c-80.43,-55.68 -150.24,-127.96 -203.61,-214.29l-225.85 43.07 -68.12 -177.3 196.6 -119.28c-18.18,-99.84 -14.77,-200.27 7.68,-295.47l-190.23 -129.31 77.19 -173.54 223.42 54.69c55.68,-80.43 127.96,-150.24 214.29,-203.61l-43.07 -225.85 177.3 -68.12 119.28 196.6c99.84,-18.18 200.27,-14.77 295.47,7.68l129.31 -190.23 173.54 77.19 -54.69 223.42c80.43,55.68 150.24,127.96 203.61,214.29l225.85 -43.07 68.12 177.3 -196.59 119.27c18.17,99.85 14.73,200.27 -7.7,295.47l190.24 129.32 -77.19 173.54 -223.44 -54.7c-55.68,80.42 -127.96,150.22 -214.28,203.59l43.07 225.88 -177.3 68.12 -119.28 -196.6z"/>
 </g>
</svg>
